<svg version="1.1" xmlns="http://www.w3.org/2000/svg" xmlns:xlink="http://www.w3.org/1999/xlink" width="20px" height="20px" viewBox="0,0,256,256"><g fill="#a0a0a0" fill-rule="nonzero" stroke="none" stroke-width="1" stroke-linecap="butt" stroke-linejoin="miter" stroke-miterlimit="10" stroke-dasharray="" stroke-dashoffset="0" font-family="none" font-weight="none" font-size="none" text-anchor="none" style="mix-blend-mode: normal"><g transform="translate(-0.064,0) scale(12.8,12.8)"><path d="M12.81,4.36l-1.77,1.78c-1.38073,-0.3705 -2.85423,0.02404 -3.8651,1.0349c-1.01086,1.01086 -1.4054,2.48436 -1.0349,3.8651l-2.76,2.75c-1.32,-1 -2.42,-2.3 -3.18,-3.79c2.35076,-4.60947 7.59624,-6.95744 12.6,-5.64zM16.61,6.21c1.33,1 2.43,2.3 3.2,3.79c-2.35256,4.61842 -7.60993,6.96799 -12.62,5.64l1.77,-1.78c1.38073,0.3705 2.85423,-0.02404 3.8651,-1.0349c1.01086,-1.01086 1.4054,-2.48436 1.0349,-3.8651l2.76,-2.75zM16.36,2.22l1.42,1.42l-14.14,14.14l-1.42,-1.42z"></path></g></g></svg>