<svg version="1.1" xmlns="http://www.w3.org/2000/svg" xmlns:xlink="http://www.w3.org/1999/xlink" width="20px" height="20px" viewBox="0,0,256,256"><g fill="#a0a0a0" fill-rule="nonzero" stroke="none" stroke-width="1" stroke-linecap="butt" stroke-linejoin="miter" stroke-miterlimit="10" stroke-dasharray="" stroke-dashoffset="0" font-family="none" font-weight="none" font-size="none" text-anchor="none" style="mix-blend-mode: normal"><g transform="scale(12.8,12.8)"><path d="M0.2,10c1.8783,-3.68442 5.66442,-6.004 9.8,-6.004c4.13558,0 7.9217,2.31958 9.8,6.004c-1.8783,3.68442 -5.66442,6.004 -9.8,6.004c-4.13558,0 -7.9217,-2.31958 -9.8,-6.004zM10,14c2.20914,0 4,-1.79086 4,-4c0,-2.20914 -1.79086,-4 -4,-4c-2.20914,0 -4,1.79086 -4,4c0,2.20914 1.79086,4 4,4zM10,12c-1.10457,0 -2,-0.89543 -2,-2c0,-1.10457 0.89543,-2 2,-2c1.10457,0 2,0.89543 2,2c0,1.10457 -0.89543,2 -2,2z"></path></g></g></svg>